<svg xmlns="http://www.w3.org/2000/svg" width="260" height="44.41" viewBox="0 0 260 44.41">
  <g id="logo-white-no-bg" transform="translate(304.599 52.029)">
    <g id="Logo_Fronte" data-name="Logo Fronte" transform="translate(-304.599 -52.029)">
      <g id="Group_1" data-name="Group 1" transform="translate(0 12.34)">
        <path id="Path_1" data-name="Path 1" d="M5.726,64.7a.961.961,0,0,0,.981-.981V57.58a.96.96,0,0,1,.978-.981h8.86a.961.961,0,0,1,.981.981v6.136a.96.96,0,0,0,.978.981h4.745a.961.961,0,0,0,.981-.981V37.353a.961.961,0,0,0-.981-.981H18.5a.959.959,0,0,0-.978.981V48.915a.959.959,0,0,1-.981.978H7.685a.958.958,0,0,1-.978-.978V37.353a.961.961,0,0,0-.981-.981H.981A.961.961,0,0,0,0,37.353V63.716a.961.961,0,0,0,.981.981Z" transform="translate(0 -33.189)" fill="#f5f5f5" fill-rule="evenodd"/>
        <path id="Path_2" data-name="Path 2" d="M77.212,64.679h.338a1,1,0,0,0,.932-.725c.061-.143,1.147-2.364,1.147-2.364A1.544,1.544,0,0,1,81,60.671h9.016a1.544,1.544,0,0,1,1.37.919l1.157,2.425a1.6,1.6,0,0,0,.1.213.967.967,0,0,0,.814.451h5.639s.994,0,.62-.922L88.935,37.174a1.54,1.54,0,0,0-1.37-.922H83.45a1.546,1.546,0,0,0-1.373.922L77.765,47.788,71.3,63.757s-.374.922.62.922Zm5.954-12.125,1.967-5.283c.031-.092.517-.44.753,0l1.964,5.283s.376.922-.617.922H83.782s-.994,0-.617-.922" transform="translate(-40.831 -33.12)" fill="#f5f5f5" fill-rule="evenodd"/>
        <path id="Path_3" data-name="Path 3" d="M155.358,65.443h5.178a.879.879,0,0,0,.894-.9V51.215c0-.9.63-.44.63-.44l4.86,4.758a1.319,1.319,0,0,0,1.949,0l4.858-4.758s.633-.461.633.44V64.544a.878.878,0,0,0,.891.9h5.178a.877.877,0,0,0,.894-.9V37.795a.664.664,0,0,0-.676-.679h-1.754a.92.92,0,0,0-.668.269l-9.713,9.723a.822.822,0,0,1-1.234,0l-9.713-9.723a.918.918,0,0,0-.666-.269H155.14a.664.664,0,0,0-.676.679v26.75a.877.877,0,0,0,.894.9" transform="translate(-88.54 -33.616)" fill="#f5f5f5" fill-rule="evenodd"/>
        <path id="Path_4" data-name="Path 4" d="M256.967,65.45a.967.967,0,0,0,.991-.981V59.163a.962.962,0,0,0-.991-.978H242.673s-.351.079-.351-.9V55.942s-.161-.981.351-.981h14.294a.967.967,0,0,0,.991-.978V48.918s0-1.142-.991-1.142H242.514s-.369.225-.369-.658V44.7s-.146-.661.335-.661h14.486a.967.967,0,0,0,.991-.978V38.109a.964.964,0,0,0-.991-.981H236.026a.969.969,0,0,0-.994.981v26.36a.965.965,0,0,0,.994.981Z" transform="translate(-134.723 -33.622)" fill="#f5f5f5" fill-rule="evenodd"/>
        <path id="Path_5" data-name="Path 5" d="M326.631,65s1.012-.277.627-1.178L322.313,52s1.17-.382,1.478-.515a6.828,6.828,0,0,0,4.054-6.671c0-4.748-4.806-8.768-10.768-8.835h-11.9c-.586,0-.671.2-.671,1.183l0,26.8a.96.96,0,0,0,.978.981h4.9a.961.961,0,0,0,.981-.981V54.156s-.161-.5.819-.5H313.8a1.544,1.544,0,0,1,1.362.9l3.508,6.988s.269.008.346.187a.63.63,0,0,1-.036.428l.968,1.931a1.548,1.548,0,0,0,1.362.9ZM311.6,45.974V43.828s-.015-.676.6-.676h6.356a1.765,1.765,0,0,1,1.941,1.716,1.875,1.875,0,0,1-1.941,1.716H312.2s-.6.087-.6-.609" transform="translate(-174.546 -32.966)" fill="#f5f5f5" fill-rule="evenodd"/>
        <path id="Path_6" data-name="Path 6" d="M383.158,64.5a1,1,0,0,0,1.035-.986v-26.5a.98.98,0,0,0-1.035-.983h-5.009a1,1,0,0,0-1.037.983v26.5a.982.982,0,0,0,1.037.986Z" transform="translate(-216.164 -32.99)" fill="#f5f5f5" fill-rule="evenodd"/>
        <path id="Path_7" data-name="Path 7" d="M437.419,61.609A.907.907,0,0,0,437.66,61a.919.919,0,0,0-.274-.656l0-.005-3.344-3.308a.854.854,0,0,0-1.3.056c-.835.994-3.032,1.772-5.49,1.772a7.427,7.427,0,0,1-7.739-7.444,7.557,7.557,0,0,1,7.739-7.605c2.458,0,4.655.937,5.49,1.931a.852.852,0,0,0,1.3.056l3.329-3.293.013-.018a.913.913,0,0,0-.015-1.319,14.618,14.618,0,0,0-10.112-4.036,14.286,14.286,0,1,0,0,28.565,14.632,14.632,0,0,0,10.166-4.084" transform="translate(-236.542 -33.622)" fill="#f5f5f5" fill-rule="evenodd"/>
        <path id="Path_8" data-name="Path 8" d="M543.743,37.948l.909-7.408s.394-.909-.579-1.029l-4.038-.525s-.942-.376-1.06.6l-.942,7.664a.624.624,0,0,0,.563.947l4.44.64s.586.087.707-.886" transform="translate(-308.357 -28.914)" fill="#f5f5f5" fill-rule="evenodd"/>
        <path id="Path_9" data-name="Path 9" d="M579.71,56.913a7.275,7.275,0,0,0-2.453-5.867c-2.061-1.821-4.93-2.328-6.6-2.64-3.032-.568-4.543-1.014-4.543-2.435,0-.968,1.2-1.874,2.666-1.874.42,0,.776,0,1.091.01a6.676,6.676,0,0,1,1.38.151,5.741,5.741,0,0,1,3.16,1.79,1.461,1.461,0,0,0,.561.177,1.079,1.079,0,0,0,.594-.2l3.662-3.383,0-.008a.917.917,0,0,0,0-1.388l-.54-.438a16.849,16.849,0,0,0-4.241-2.568,12.162,12.162,0,0,0-4.74-.807c-5.841,0-11.044,3.713-11.044,8.66,0,3.411,1.444,7.157,8.712,8.051,4.312.53,5.063,2.125,5.063,2.9,0,1.508-2.072,2.215-3.178,2.215a10.433,10.433,0,0,1-6.73-2.205l-.005,0a.928.928,0,0,0-1.193.082c-.471.484-1.667,1.539-3.308,3.221a.921.921,0,0,0-.274.658,1.325,1.325,0,0,0,.294.83,12.22,12.22,0,0,0,5.572,3.265,19.257,19.257,0,0,0,5.644.717c3.291,0,10.445-1.621,10.445-8.9" transform="translate(-319.71 -33.794)" fill="#f5f5f5" fill-rule="evenodd"/>
        <path id="Path_10" data-name="Path 10" d="M486,65.429h.341a1,1,0,0,0,.932-.722c.059-.143,1.145-2.364,1.145-2.364a1.545,1.545,0,0,1,1.373-.922h9.014a1.546,1.546,0,0,1,1.373.922l1.155,2.422a1.356,1.356,0,0,0,.1.213.957.957,0,0,0,.814.451h5.636s1,0,.62-.922L497.729,37.924a1.544,1.544,0,0,0-1.37-.922h-4.118a1.543,1.543,0,0,0-1.37.922l-4.315,10.614-6.463,15.969s-.374.922.622.922Zm5.956-12.123,1.964-4.8s.376-.922.753,0l1.964,4.8s.376.919-.617.919h-3.447s-1,0-.617-.919" transform="translate(-275.155 -33.55)" fill="#f5f5f5" fill-rule="evenodd"/>
      </g>
      <g id="Group_2" data-name="Group 2" transform="translate(95.874)">
        <path id="Path_11" data-name="Path 11" d="M268.257,7.178V6.343h-1.874V5.457h1.7v-.84h-1.7V4.154h1.874v-.83h-2.714V7.178Z" transform="translate(-248.086 -1.905)" fill="#f5f5f5" fill-rule="evenodd"/>
        <path id="Path_12" data-name="Path 12" d="M257.318,7.178V4.159h.919V3.324h-2.656v.835h.917V7.178Z" transform="translate(-242.376 -1.905)" fill="#f5f5f5" fill-rule="evenodd"/>
        <path id="Path_13" data-name="Path 13" d="M227.457,5.2a2.252,2.252,0,0,0,.64-.448,2.313,2.313,0,0,0,.451-.64,1.784,1.784,0,0,0,.179-.786V0h-.981V.584l.005.095v2.65a.9.9,0,0,1-.085.389,1.2,1.2,0,0,1-.246.351,1.29,1.29,0,0,1-.356.254.879.879,0,0,1-.768,0,1.235,1.235,0,0,1-.351-.251,1.193,1.193,0,0,1-.243-.353.9.9,0,0,1-.087-.389V0h-.976V3.329a1.85,1.85,0,0,0,.174.784,2.243,2.243,0,0,0,.453.645,2.343,2.343,0,0,0,.645.446,1.8,1.8,0,0,0,1.544,0" transform="translate(-224.64)" fill="#f5f5f5" fill-rule="evenodd"/>
        <path id="Path_14" data-name="Path 14" d="M276.547,4.164h.335a.923.923,0,0,1,.384.082,1.03,1.03,0,0,1,.325.236,1.167,1.167,0,0,1,.223.353,1.137,1.137,0,0,1,0,.848,1.094,1.094,0,0,1-.22.346,1.08,1.08,0,0,1-.325.228.9.9,0,0,1-.387.082h-.335Zm.335,3.014a1.733,1.733,0,0,0,.722-.154,1.875,1.875,0,0,0,.584-.412,2,2,0,0,0,.4-.609,1.962,1.962,0,0,0,0-1.485,2,2,0,0,0-.394-.615,1.978,1.978,0,0,0-.584-.417,1.667,1.667,0,0,0-.725-.161h-1.17V7.178Z" transform="translate(-253.915 -1.905)" fill="#f5f5f5" fill-rule="evenodd"/>
        <path id="Path_15" data-name="Path 15" d="M241.3,7.178h.294V3.324h-.84v2.2l-1.572-2.2h-.658V7.178h.842V5.024l1.542,2.154h.359l.033.046Z" transform="translate(-232.599 -1.905)" fill="#f5f5f5" fill-rule="evenodd"/>
        <rect id="Rectangle_7" data-name="Rectangle 7" width="0.845" height="3.854" transform="translate(10.809 1.419)" fill="#f5f5f5"/>
        <path id="Path_16" data-name="Path 16" d="M378.6,7.178V5.816h1.585V4.981H378.6V4.149h1.862V3.324h-2.7V7.178Z" transform="translate(-312.41 -1.905)" fill="#f5f5f5" fill-rule="evenodd"/>
        <path id="Path_17" data-name="Path 17" d="M296.783,5.273V.958H298.1V0H294.54V.958h1.306V5.273Z" transform="translate(-264.707 0)" fill="#f5f5f5" fill-rule="evenodd"/>
        <path id="Path_18" data-name="Path 18" d="M366.04,6.317a1.115,1.115,0,0,1-.6-.6,1.084,1.084,0,0,1-.09-.44,1.032,1.032,0,0,1,.09-.433,1.155,1.155,0,0,1,.246-.364,1.059,1.059,0,0,1,.359-.243,1.145,1.145,0,0,1,.876,0,1.1,1.1,0,0,1,.359.243,1.166,1.166,0,0,1,.243.361,1.084,1.084,0,0,1,.087.435,1.148,1.148,0,0,1-.087.443,1.125,1.125,0,0,1-.243.359,1.1,1.1,0,0,1-.359.243,1.152,1.152,0,0,1-.876,0m1.2.773a1.926,1.926,0,0,0,.625-.428,2.055,2.055,0,0,0,.423-.625,1.932,1.932,0,0,0,0-1.534,2.012,2.012,0,0,0-1.047-1.047,1.962,1.962,0,0,0-1.531,0A2.012,2.012,0,0,0,364.665,4.5a1.911,1.911,0,0,0-.159.768,1.94,1.94,0,0,0,.156.766,2.147,2.147,0,0,0,.423.627,2,2,0,0,0,.627.425,1.926,1.926,0,0,0,1.531,0" transform="translate(-304.813 -1.892)" fill="#f5f5f5" fill-rule="evenodd"/>
        <path id="Path_19" data-name="Path 19" d="M339.563,7.178V6.343h-1.877V5.457h1.7v-.84h-1.7V4.154h1.877v-.83h-2.717V7.178Z" transform="translate(-288.957 -1.905)" fill="#f5f5f5" fill-rule="evenodd"/>
        <path id="Path_20" data-name="Path 20" d="M348.586,6.892a1.064,1.064,0,0,0,.4-.863,1.552,1.552,0,0,0-.051-.4,1.029,1.029,0,0,0-.21-.382l-.041-.044-.074-.077a.919.919,0,0,0-.213-.159,1.422,1.422,0,0,0-.3-.128,2,2,0,0,0-.4-.077.673.673,0,0,1-.294-.141.273.273,0,0,1-.072-.215.33.33,0,0,1,.028-.128.428.428,0,0,1,.087-.115.478.478,0,0,1,.138-.09.328.328,0,0,1,.359.054.55.55,0,0,1,.164.248l.095.274.768-.318-.085-.243a1.33,1.33,0,0,0-.428-.617,1.175,1.175,0,0,0-.7-.264,1.366,1.366,0,0,0-.479.085,1.328,1.328,0,0,0-.407.241,1.188,1.188,0,0,0-.287.379,1.113,1.113,0,0,0-.108.489,1.374,1.374,0,0,0,.051.366,1.149,1.149,0,0,0,.179.359,1.121,1.121,0,0,0,.323.284,1.459,1.459,0,0,0,.476.172,1.087,1.087,0,0,1,.522.172.278.278,0,0,1,.123.248.3.3,0,0,1-.1.243.6.6,0,0,1-.392.1.583.583,0,0,1-.138-.02.557.557,0,0,1-.151-.059.5.5,0,0,1-.136-.1.582.582,0,0,1-.11-.172l-.133-.3-.684.476.074.2a1.148,1.148,0,0,0,.22.359,1.486,1.486,0,0,0,.3.251,1.457,1.457,0,0,0,.353.156,1.362,1.362,0,0,0,.371.056,1.5,1.5,0,0,0,.963-.294" transform="translate(-294.378 -1.84)" fill="#f5f5f5" fill-rule="evenodd"/>
        <path id="Path_21" data-name="Path 21" d="M306.745,7.178l.069-.169.192-.461.131-.315h1.229l.394.945h.919l-1.634-3.854h-.6l-1.616,3.854Zm1.006-2.4.256.612h-.514Z" transform="translate(-271.177 -1.905)" fill="#f5f5f5" fill-rule="evenodd"/>
        <path id="Path_22" data-name="Path 22" d="M319.588,6.9a1.061,1.061,0,0,0,.4-.863,1.537,1.537,0,0,0-.051-.4,1.028,1.028,0,0,0-.218-.389l-.031-.033-.077-.079a1,1,0,0,0-.213-.159,1.392,1.392,0,0,0-.3-.128,1.969,1.969,0,0,0-.4-.077.659.659,0,0,1-.294-.141.269.269,0,0,1-.072-.215.308.308,0,0,1,.028-.125.4.4,0,0,1,.087-.118.476.476,0,0,1,.138-.09.332.332,0,0,1,.356.051.571.571,0,0,1,.166.251l.092.274.771-.318-.085-.243a1.334,1.334,0,0,0-.43-.617,1.143,1.143,0,0,0-.7-.261,1.366,1.366,0,0,0-.479.085,1.321,1.321,0,0,0-.407.238,1.16,1.16,0,0,0-.287.379,1.128,1.128,0,0,0-.108.489,1.375,1.375,0,0,0,.051.366,1.15,1.15,0,0,0,.179.359,1.122,1.122,0,0,0,.323.284,1.4,1.4,0,0,0,.476.172,1.1,1.1,0,0,1,.522.172.281.281,0,0,1,.123.248.309.309,0,0,1-.1.246.6.6,0,0,1-.392.1.583.583,0,0,1-.138-.02.6.6,0,0,1-.151-.056.569.569,0,0,1-.136-.108.583.583,0,0,1-.11-.172l-.133-.3-.684.476.074.2a1.148,1.148,0,0,0,.22.359,1.485,1.485,0,0,0,.3.251,1.457,1.457,0,0,0,.353.156,1.362,1.362,0,0,0,.371.056,1.5,1.5,0,0,0,.963-.294" transform="translate(-277.756 -1.843)" fill="#f5f5f5" fill-rule="evenodd"/>
        <path id="Path_23" data-name="Path 23" d="M328.626,7.178V4.159h.922V3.324h-2.655v.835h.914V7.178Z" transform="translate(-283.252 -1.905)" fill="#f5f5f5" fill-rule="evenodd"/>
      </g>
    </g>
  </g>
</svg>
