<svg xmlns="http://www.w3.org/2000/svg" width="300" height="75.844" viewBox="0 0 300 75.844">
  <g id="logo-targa" transform="translate(150 37.922)">
    <g id="targa_logo_blk" transform="translate(-150 -37.921)">
      <g id="Rectangle_3234" data-name="Rectangle 3234" fill="#010200" stroke="#fff" stroke-miterlimit="10" stroke-width="4.032">
        <rect width="300" height="75.843" rx="8.742" stroke="none"/>
        <rect x="2.016" y="2.016" width="295.968" height="71.811" rx="6.726" fill="none"/>
      </g>
      <g id="Disegno_4" data-name="Disegno 4" transform="translate(23.446 13.271)">
        <g id="Group_5296" data-name="Group 5296" transform="translate(0 0)">
          <path id="Path_24586" data-name="Path 24586" d="M331.546,49.463h-3.61v-1.7h3.27V46.143h-3.27v-.894h3.61v-1.6H326.32v7.416h5.226Z" transform="translate(-230.16 -40.924)" fill="#fff"/>
          <path id="Path_24587" data-name="Path 24587" d="M305.783,51.068h1.576V45.258h1.77V43.653h-5.106v1.606h1.76Z" transform="translate(-216.035 -40.924)" fill="#fff"/>
          <path id="Path_24588" data-name="Path 24588" d="M240.688,37.273l0,.057c.007.066.012.127.012.185v5.1a1.736,1.736,0,0,1-.166.746,2.327,2.327,0,0,1-.474.677,2.456,2.456,0,0,1-.684.485,1.669,1.669,0,0,1-1.479,0,2.326,2.326,0,0,1-.672-.479,2.431,2.431,0,0,1-.47-.682,1.729,1.729,0,0,1-.165-.746V36.207h-1.875v6.407a3.53,3.53,0,0,0,.334,1.507,4.248,4.248,0,0,0,.871,1.239,4.471,4.471,0,0,0,1.239.858,3.531,3.531,0,0,0,1.493.334,3.488,3.488,0,0,0,1.476-.334,4.344,4.344,0,0,0,1.236-.862,4.466,4.466,0,0,0,.866-1.229,3.488,3.488,0,0,0,.343-1.512V36.207h-1.889Z" transform="translate(-172.133 -36.207)" fill="#fff"/>
          <path id="Path_24589" data-name="Path 24589" d="M352.747,50.772a3.661,3.661,0,0,0,1.125-.793,3.768,3.768,0,0,0-1.117-6.015,3.212,3.212,0,0,0-1.394-.312h-2.253v7.417h2.253A3.339,3.339,0,0,0,352.747,50.772Zm-2.032-5.5h.646a1.708,1.708,0,0,1,.739.161,2,2,0,0,1,.623.452,2.2,2.2,0,0,1,.429.678,2.2,2.2,0,0,1,0,1.633,2.094,2.094,0,0,1-.423.662,2.011,2.011,0,0,1-.623.439,1.734,1.734,0,0,1-.745.158h-.646Z" transform="translate(-244.595 -40.923)" fill="#fff"/>
          <path id="Path_24590" data-name="Path 24590" d="M267.431,46.924,270.4,51.07h.689l.063.087V51.07h.569V43.654H270.1V47.9l-3.028-4.231h-1.262v7.4h1.616Z" transform="translate(-191.831 -40.924)" fill="#fff"/>
          <rect id="Rectangle_3235" data-name="Rectangle 3235" width="1.625" height="7.416" transform="translate(83.375 2.729)" fill="#fff"/>
          <path id="Path_24591" data-name="Path 24591" d="M579.3,48.449h3.052V46.843H579.3v-1.6h3.581V43.652h-5.194v7.416H579.3Z" transform="translate(-389.391 -40.923)" fill="#fff"/>
          <path id="Path_24592" data-name="Path 24592" d="M391.275,38.054h2.514v8.3h1.8v-8.3h2.528V36.208h-6.845Z" transform="translate(-271.307 -36.208)" fill="#fff"/>
          <path id="Path_24593" data-name="Path 24593" d="M554.457,44.719a3.9,3.9,0,0,0-1.2-.815,3.752,3.752,0,0,0-2.947,0,3.837,3.837,0,0,0-2.016,2.016,3.732,3.732,0,0,0,0,2.948,3.956,3.956,0,0,0,.813,1.2,3.865,3.865,0,0,0,1.2.821,3.725,3.725,0,0,0,2.947,0h0a3.851,3.851,0,0,0,1.2-.82,3.975,3.975,0,0,0,.813-1.2,3.733,3.733,0,0,0,0-2.949A3.9,3.9,0,0,0,554.457,44.719Zm-.673,3.528a2.217,2.217,0,0,1-.465.693,2.247,2.247,0,0,1-.691.464,2.179,2.179,0,0,1-2.38-.463,2.274,2.274,0,0,1-.471-.7,2.089,2.089,0,0,1-.171-.85,2.021,2.021,0,0,1,.171-.829,2.3,2.3,0,0,1,.473-.7,2.178,2.178,0,0,1,2.377-.466,2.16,2.16,0,0,1,.689.466,2.283,2.283,0,0,1,.467.7,2.084,2.084,0,0,1,.166.833A2.153,2.153,0,0,1,553.784,48.247Z" transform="translate(-370.581 -40.892)" fill="#fff"/>
          <path id="Path_24594" data-name="Path 24594" d="M491.266,49.463h-3.61v-1.7h3.27V46.143h-3.27v-.894h3.61v-1.6h-5.225v7.416h5.225Z" transform="translate(-331.338 -40.924)" fill="#fff"/>
          <path id="Path_24595" data-name="Path 24595" d="M509.819,49.438a1.218,1.218,0,0,1-.558-.149,1.089,1.089,0,0,1-.264-.2,1.17,1.17,0,0,1-.211-.327l-.257-.578-1.315.914.145.382a2.153,2.153,0,0,0,.423.689,2.7,2.7,0,0,0,.582.481,2.755,2.755,0,0,0,.677.3,2.614,2.614,0,0,0,.717.106,2.9,2.9,0,0,0,1.851-.564,2.04,2.04,0,0,0,.761-1.659,2.872,2.872,0,0,0-.1-.771,1.919,1.919,0,0,0-.4-.733l-.076-.082c-.037-.036-.085-.085-.146-.149a1.852,1.852,0,0,0-.408-.308,2.959,2.959,0,0,0-.579-.246,3.935,3.935,0,0,0-.776-.148,1.236,1.236,0,0,1-.565-.27.513.513,0,0,1-.138-.412.584.584,0,0,1,.055-.244.722.722,0,0,1,.165-.225.951.951,0,0,1,.268-.17.628.628,0,0,1,.688.1,1.1,1.1,0,0,1,.317.478l.178.527,1.481-.609-.16-.467a2.561,2.561,0,0,0-.826-1.186A2.212,2.212,0,0,0,510,43.409a2.665,2.665,0,0,0-.923.162,2.555,2.555,0,0,0-.782.462,2.241,2.241,0,0,0-.553.73,2.16,2.16,0,0,0-.206.939,2.564,2.564,0,0,0,.1.7,2.1,2.1,0,0,0,.344.69,2.13,2.13,0,0,0,.619.549,2.747,2.747,0,0,0,.917.326,2.152,2.152,0,0,1,1.006.332.535.535,0,0,1,.234.479.588.588,0,0,1-.184.47A1.149,1.149,0,0,1,509.819,49.438Z" transform="translate(-344.751 -40.769)" fill="#fff"/>
          <path id="Path_24596" data-name="Path 24596" d="M418.452,50.743c.111-.277.236-.573.369-.885.089-.206.174-.409.253-.61h2.363l.76,1.82h1.768l-3.142-7.416h-1.165l-3.109,7.416h1.768Zm1.8-4.285.494,1.174h-.993Z" transform="translate(-287.318 -40.924)" fill="#fff"/>
          <path id="Path_24597" data-name="Path 24597" d="M444.868,49.437a1.17,1.17,0,0,1-.269-.035,1.341,1.341,0,0,1-.289-.112,1.15,1.15,0,0,1-.262-.206,1.126,1.126,0,0,1-.21-.327l-.259-.577-1.313.915.145.379a2.1,2.1,0,0,0,.423.689,2.722,2.722,0,0,0,.58.483,2.8,2.8,0,0,0,.68.3,2.561,2.561,0,0,0,.714.105,2.893,2.893,0,0,0,1.85-.563,2.04,2.04,0,0,0,.765-1.659,2.878,2.878,0,0,0-.1-.769,1.907,1.907,0,0,0-.416-.749l-.061-.064c-.037-.036-.085-.088-.149-.154a1.767,1.767,0,0,0-.407-.308,2.815,2.815,0,0,0-.58-.246,3.8,3.8,0,0,0-.776-.149,1.213,1.213,0,0,1-.565-.271.5.5,0,0,1-.139-.41.577.577,0,0,1,.056-.246.688.688,0,0,1,.165-.222.949.949,0,0,1,.268-.172.629.629,0,0,1,.686.1,1.1,1.1,0,0,1,.319.478l.178.527,1.483-.611-.16-.467a2.586,2.586,0,0,0-.829-1.186,2.215,2.215,0,0,0-1.348-.505,2.652,2.652,0,0,0-.921.162,2.58,2.58,0,0,0-.783.46,2.281,2.281,0,0,0-.552.73,2.17,2.17,0,0,0-.207.939,2.534,2.534,0,0,0,.1.705,2.1,2.1,0,0,0,.963,1.238,2.7,2.7,0,0,0,.916.327,2.188,2.188,0,0,1,1.009.33.545.545,0,0,1,.233.48.586.586,0,0,1-.187.471A1.152,1.152,0,0,1,444.868,49.437Z" transform="translate(-303.607 -40.769)" fill="#fff"/>
          <path id="Path_24598" data-name="Path 24598" d="M465.5,51.068h1.577V45.258h1.769V43.653h-5.105v1.606H465.5Z" transform="translate(-317.213 -40.924)" fill="#fff"/>
          <path id="Path_24599" data-name="Path 24599" d="M433.855,98.6a6.882,6.882,0,0,0,2.791-5.9c0-4.682-4.738-8.643-10.613-8.708H414.3c-.267,0-.425.047-.521.187-.281.1-.33.386-.33,1.124v26.417a.946.946,0,0,0,.966.967h4.835a1.141,1.141,0,0,0,.7-.28.865.865,0,0,0,.457-.828v-9.673a.312.312,0,0,1,.05-.254,1.378,1.378,0,0,1,.567-.095h1.582a1.525,1.525,0,0,1,1.344.89l3.458,6.891s.264,0,.339.182a.613.613,0,0,1-.036.422l.956,1.9a1.525,1.525,0,0,0,1.343.888h5.246a1.27,1.27,0,0,0,.465-.261.759.759,0,0,0,.347-1.042l-4.845-11.578c.349-.115,1.014-.337,1.235-.433A6.767,6.767,0,0,0,433.855,98.6Zm-5.216-4.516a2.187,2.187,0,0,1-1.148.36h-6.266s-.586.085-.586-.6V91.728a.831.831,0,0,1,.151-.47.6.6,0,0,1,.214-.049c-.009-.01-.027-.032-.059-.071-.052-.007-.08.01-.09.045-.113-.018,0-.175.09-.136.027.1.085.189.059.162.011,0,.019,0,.03,0H427.3a1.741,1.741,0,0,1,1.914,1.691A1.52,1.52,0,0,1,428.638,94.084Z" transform="translate(-285.354 -66.479)" fill="#fff"/>
          <path id="Path_24600" data-name="Path 24600" d="M87.061,84.443H82.385a1.134,1.134,0,0,0-.722.3.864.864,0,0,0-.424.807V96.949a1.147,1.147,0,0,1-.269.69.985.985,0,0,1-.518.132H71.719a.946.946,0,0,1-.966-.966V85.41a.947.947,0,0,0-.967-.967H65.11a1.13,1.13,0,0,0-.724.306.865.865,0,0,0-.419.8v25.984a.946.946,0,0,0,.966.967h4.675a1.136,1.136,0,0,0,.716-.3.864.864,0,0,0,.428-.81v-6.049a1.148,1.148,0,0,1,.269-.691.988.988,0,0,1,.519-.133h8.733a.946.946,0,0,1,.965.965v6.048a.947.947,0,0,0,.966.967h4.676a1.138,1.138,0,0,0,.714-.3.864.864,0,0,0,.431-.812V85.41A.946.946,0,0,0,87.061,84.443Z" transform="translate(-63.967 -66.763)" fill="#fff"/>
          <path id="Path_24601" data-name="Path 24601" d="M163.348,85.212A1.519,1.519,0,0,0,162,84.3H157.94a1.641,1.641,0,0,0-1.018.42,1.366,1.366,0,0,0-.516.632l-4.252,10.463-6.37,15.74s-.368.909.612.909h5.549a.869.869,0,0,0,.636-.277,1.143,1.143,0,0,0,.463-.578c.06-.141,1.13-2.33,1.13-2.33a1.748,1.748,0,0,1,.387-.525,1.364,1.364,0,0,1,.783-.24h8.885a1.523,1.523,0,0,1,1.352.908l1.14,2.389a1.4,1.4,0,0,0,.1.209.945.945,0,0,0,.8.444h5.557a.865.865,0,0,0,.59-.239c.216-.106.4-.329.2-.812Zm-5.078,16.069s-.98,0-.609-.907c0,0,1.888-5.068,1.938-5.211,0,0,.005-.007.007-.01a.38.38,0,0,1,.553.154l1.937,5.21a.814.814,0,0,1-.034.682.873.873,0,0,1-.393.082Z" transform="translate(-115.753 -66.675)" fill="#fff"/>
          <path id="Path_24602" data-name="Path 24602" d="M267.237,85.29h-1.731a.919.919,0,0,0-.658.265l-.012.012a.891.891,0,0,0-.174.132l-9.56,9.572a.94.94,0,0,1-.436.146,1.036,1.036,0,0,1-.607-.276l-9.575-9.586a.917.917,0,0,0-.658-.265h-1.731a.609.609,0,0,0-.51.222.72.72,0,0,0-.34.592V112.47a.864.864,0,0,0,.88.887h5.1a.814.814,0,0,0,.637-.254.96.96,0,0,0,.429-.774V99.189a.817.817,0,0,1,.078-.4.6.6,0,0,1,.358.107l4.79,4.689a1.289,1.289,0,0,0,1.835.072,1.511,1.511,0,0,0,.271-.214l4.7-4.606c.175-.086.522-.173.522.489V112.47a.867.867,0,0,0,.881.887h5.1a1.034,1.034,0,0,0,.645-.265.8.8,0,0,0,.422-.763V85.96A.655.655,0,0,0,267.237,85.29Z" transform="translate(-176.267 -67.3)" fill="#fff"/>
          <path id="Path_24603" data-name="Path 24603" d="M355.518,85.307H334.875a1.161,1.161,0,0,0-.724.3.861.861,0,0,0-.443.815V112.4a.95.95,0,0,0,.979.965h20.642a1.167,1.167,0,0,0,.714-.284.863.863,0,0,0,.455-.823v-5.23a.95.95,0,0,0-.979-.966H341.43s-.346.079-.346-.887v-1.324a1.539,1.539,0,0,1,.073-.8.29.29,0,0,1,.085-.022h14.087a1.164,1.164,0,0,0,.716-.287.864.864,0,0,0,.453-.823V96.929s0-1.124-.979-1.124H341.272s-.362.221-.362-.651V92.771a.849.849,0,0,1,.043-.487.363.363,0,0,1,.1-.019h14.277a1.165,1.165,0,0,0,.718-.29.862.862,0,0,0,.45-.82V86.273A.95.95,0,0,0,355.518,85.307Z" transform="translate(-234.84 -67.31)" fill="#fff"/>
          <path id="Path_24604" data-name="Path 24604" d="M502.931,84.039h-4.939a1.237,1.237,0,0,0-.752.3.862.862,0,0,0-.462.82v26.123a.967.967,0,0,0,1.021.971h4.938a1.241,1.241,0,0,0,.746-.288.861.861,0,0,0,.468-.824V85.01A.967.967,0,0,0,502.931,84.039Z" transform="translate(-338.14 -66.507)" fill="#fff"/>
          <path id="Path_24605" data-name="Path 24605" d="M562.144,108.184l-3.3-3.261a.847.847,0,0,0-1.179-.048,1.011,1.011,0,0,0-.3.247,2.641,2.641,0,0,1-.34.328,8.836,8.836,0,0,1-4.874,1.276,7.406,7.406,0,0,1-4.9-13.149,7.746,7.746,0,0,1,4.7-1.543c2.422,0,4.588.925,5.411,1.9a.842.842,0,0,0,1.225.1,1.09,1.09,0,0,0,.25-.189L562.13,90.6a.116.116,0,0,1,.011-.018.9.9,0,0,0-.013-1.3,14.533,14.533,0,0,0-18.681-1.094,13.967,13.967,0,0,0-5.866,11.339,14.244,14.244,0,0,0,14.382,14.078,15.115,15.115,0,0,0,10.217-4.167.9.9,0,0,0-.032-1.251Z" transform="translate(-363.986 -67.31)" fill="#fff"/>
          <path id="Path_24606" data-name="Path 24606" d="M687.607,76.475l-3.98-.519s-.547-.214-.853.123a.671.671,0,0,0-.391.61l-.928,7.555a.614.614,0,0,0,.556.934l4.376.63a.527.527,0,0,0,.433-.187c.175-.074.4-.275.464-.83l.9-7.3S688.567,76.592,687.607,76.475Z" transform="translate(-455.073 -61.345)" fill="#fff"/>
          <path id="Path_24607" data-name="Path 24607" d="M723.524,99.075c-2.032-1.794-4.859-2.294-6.5-2.6-2.99-.56-4.478-1-4.478-2.4a1.6,1.6,0,0,1,.685-1.207,3.22,3.22,0,0,1,1.741-.5c.414,0,.766,0,1.074.011a6.66,6.66,0,0,1,1.362.148,5.651,5.651,0,0,1,3.114,1.767,1.5,1.5,0,0,0,.554.173,1.052,1.052,0,0,0,.585-.2l.066-.061a1.592,1.592,0,0,0,.136-.082l3.608-3.335s0,0,0-.006a.9.9,0,0,0,0-1.368l-.534-.432a16.634,16.634,0,0,0-4.179-2.533,12,12,0,0,0-4.672-.8,12.649,12.649,0,0,0-7.637,2.469A7.743,7.743,0,0,0,705,94.333c0,3.361,1.423,7.055,8.586,7.937,4.25.521,4.99,2.094,4.99,2.853a1.753,1.753,0,0,1-.776,1.4,4.354,4.354,0,0,1-2.155.643,10.283,10.283,0,0,1-6.632-2.174l-.006,0a1.338,1.338,0,0,0-1.379.223c-.464.478-1.642,1.517-3.26,3.174h0a.9.9,0,0,0-.272.648,1.3,1.3,0,0,0,.292.819,12.034,12.034,0,0,0,5.492,3.217,18.925,18.925,0,0,0,5.562.708,12.771,12.771,0,0,0,6.956-2.084,7.753,7.753,0,0,0,3.544-6.834A7.175,7.175,0,0,0,723.524,99.075Z" transform="translate(-469.471 -67.528)" fill="#fff"/>
          <path id="Path_24608" data-name="Path 24608" d="M632.54,86.075a1.519,1.519,0,0,0-1.35-.909h-4.058a1.635,1.635,0,0,0-.986.385,1.376,1.376,0,0,0-.565.667l-4.252,10.463-6.37,15.74s-.368.909.612.909h5.548a.867.867,0,0,0,.618-.257,1.118,1.118,0,0,0,.5-.6c.059-.141,1.13-2.33,1.13-2.33a1.738,1.738,0,0,1,.427-.562,1.366,1.366,0,0,1,.725-.2H633.4a1.523,1.523,0,0,1,1.352.908l1.139,2.39a1.473,1.473,0,0,0,.1.209.949.949,0,0,0,.8.444h5.557a.871.871,0,0,0,.584-.229c.226-.1.431-.321.228-.821Zm-5.687,15.163L628.79,96.5a1.2,1.2,0,0,1,.15-.255c.118-.023.255.064.393.4l1.936,4.736a.8.8,0,0,1-.045.7.919.919,0,0,1-.364.067h-3.4S626.482,102.144,626.853,101.237Z" transform="translate(-412.961 -67.221)" fill="#fff"/>
        </g>
      </g>
    </g>
  </g>
</svg>
